# xmcd
#
# Track frame offsets: 
#        300
#        22101
#        41656
#        65725
#        84213
#        104105
#        120991
#        141496
#        162103
#        180040
#        191797
#        212917
#
# Disc length: 3007 seconds
#
# Revision: 5
# Processed by: cddbd v1.5.2PL0 Copyright (c) Steve Scherf et al.
# Submitted via: ExactAudioCopy v0.99pb5
#
DISCID=ab0bbb0c
DTITLE=Alannah Myles - A-lan-nah
DYEAR=1995
DGENRE=Pop Female Singer-Songwriter
TTITLE0=Mistress of Erzulie
TTITLE1=Blow wind blow
TTITLE2=Family Secret
TTITLE3=Mother Nature
TTITLE4=Irish Rain
TTITLE5=Dark side of me
TTITLE6=Simple man's dream
TTITLE7=Lightning in a bottle
TTITLE8=Keeper of my heart
TTITLE9=Do you really wanna know me
TTITLE10=Everybody's breakin' up
TTITLE11=Sally go round the roses
EXTD=
EXTT0=
EXTT1=
EXTT2=
EXTT3=
EXTT4=
EXTT5=
EXTT6=
EXTT7=
EXTT8=
EXTT9=
EXTT10=
EXTT11=
PLAYORDER=
